:FULLY-SPECIFIED
:FORCE-ALL-JOINTS-BE-3DOF
:DEGREES
1020
root 0.245668 13.5564 -35.3871 12.3076 -28.1523 -17.6585
lfemur -70.1153 36.0886 -4.14529
ltibia 82.4493 -0 0
lfoot -12.9998 -8.60335 -0.00167039
ltoes -5.90604 0 0
rfemur 10.3776 -8.72374 8.64379
rtibia 36.2057 -0 0
rfoot -22.6555 -26.1869 -1.41973e-05
rtoes -31.4519 0 0
lowerback 10.1971 -0.850871 5.37483
upperback -1.86405 0.0745166 8.15059
thorax -7.7678 -0.0375157 5.69751
lowerneck -4.83212 8.32382 3.41192
upperneck 7.9122 10.9645 -1.02661
head 3.69063 5.48877 -0.387357
lclavicle -5.7573e-14 1.55052e-14 0
lhumerus 83.1495 -9.15793 28.2944
lradius 94.1503 -0 0
lwrist 9.31981 0 0
lhand -35.7225 30.8197 0.00902975
lfingers 7.12502 -0 0
lthumb -8.84193 60.6135 0.00884975
rclavicle -5.7573e-14 1.55052e-14 0
rhumerus -77.582 23.0126 -95.1054
rradius 111.924 -0 0
rwrist -63.2528 0 0
rhand -10.2 -25.1086 -0.000264777
rfingers 7.12502 -0 0
rthumb 15.7911 -54.4845 -0.00024508
1021
root 0.245029 13.5526 -35.3791 12.3071 -28.1566 -17.6531
lfemur -70.1334 36.112 -4.16378
ltibia 82.5026 -0 0
lfoot -13.0522 -8.58404 -0.00120219
ltoes -5.96069 0 0
rfemur 10.4032 -8.71672 8.62334
rtibia 36.1873 -0 0
rfoot -22.6533 -26.1907 -1.02179e-05
rtoes -31.4423 0 0
lowerback 10.1834 -0.845004 5.35504
upperback -1.86999 0.0786028 8.14293
thorax -7.76532 -0.0325532 5.70059
lowerneck -4.84253 8.32387 3.41098
upperneck 7.91772 10.9637 -1.01867
head 3.69392 5.48858 -0.384071
lclavicle -5.7573e-14 1.55052e-14 0
lhumerus 83.1737 -8.40051 28.3783
lradius 94.1234 -0 0
lwrist 9.12705 0 0
lhand -35.7716 30.7084 0.00649865
lfingers 7.12502 -0 0
lthumb -8.88932 60.5005 0.00636911
rclavicle -5.7573e-14 1.55052e-14 0
rhumerus -77.589 23.0244 -95.1123
rradius 111.914 -0 0
rwrist -63.2601 0 0
rhand -10.2089 -25.0908 -0.000190562
rfingers 7.12502 -0 0
rthumb 15.7825 -54.4673 -0.000176386
1022
root 0.24439 13.5487 -35.371 12.3067 -28.1601 -17.6485
lfemur -70.1487 36.1316 -4.17934
ltibia 82.5474 -0 0
lfoot -13.0963 -8.5678 -0.000794685
ltoes -6.00666 0 0
rfemur 10.4248 -8.71081 8.60613
rtibia 36.1719 -0 0
rfoot -22.6503 -26.1959 -4.62166e-06
rtoes -31.4342 0 0
lowerback 10.1719 -0.840072 5.33839
upperback -1.87499 0.0820394 8.13649
thorax -7.76451 -0.030931 5.7016
lowerneck -4.85128 8.32391 3.41019
upperneck 7.92237 10.963 -1.01199
head 3.69836 5.48833 -0.379646
lclavicle -5.7573e-14 1.55052e-14 0
lhumerus 83.1948 -7.76343 28.449
lradius 94.1007 -0 0
lwrist 8.96491 0 0
lhand -35.8129 30.6148 0.00429575
lfingers 7.12502 -0 0
lthumb -8.92918 60.4054 0.00421012
rclavicle -5.7573e-14 1.55052e-14 0
rhumerus -77.5948 23.0344 -95.1181
rradius 111.905 -0 0
rwrist -63.2663 0 0
rhand -10.2165 -25.0758 -0.000125968
rfingers 7.12502 -0 0
rthumb 15.7752 -54.4529 -0.000116597
1023
root 0.243751 13.5449 -35.363 12.3064 -28.163 -17.6449
lfemur -70.1609 36.1473 -4.19178
ltibia 82.5833 -0 0
lfoot -13.1315 -8.55483 -0.000460118
ltoes -6.0434 0 0
rfemur 10.442 -8.70609 8.59239
rtibia 36.1596 -0 0
rfoot -22.6493 -26.1977 -2.65391e-06
rtoes -31.4277 0 0
lowerback 10.1626 -0.836134 5.32508
upperback -1.87898 0.0847847 8.13135
thorax -7.76386 -0.0296443 5.7024
lowerneck -4.85827 8.32395 3.40956
upperneck 7.92609 10.9624 -1.00665
head 3.69987 5.48824 -0.378139
lclavicle -5.7573e-14 1.55052e-14 0
lhumerus 83.2123 -7.25443 28.5056
lradius 94.0826 -0 0
lwrist 8.83536 0 0
lhand -35.8459 30.5401 0.00248719
lfingers 7.12502 -0 0
lthumb -8.96103 60.3295 0.00243761
rclavicle -5.7573e-14 1.55052e-14 0
rhumerus -77.5995 23.0423 -95.1227
rradius 111.899 -0 0
rwrist -63.2712 0 0
rhand -10.2225 -25.0638 -7.29348e-05
rfingers 7.12502 -0 0
rthumb 15.7694 -54.4413 -6.75092e-05
1024
root 0.243113 13.541 -35.355 12.3061 -28.1656 -17.6415
lfemur -70.1698 36.1588 -4.20091
ltibia 82.6095 -0 0
lfoot -13.1573 -8.54532 -0.000209761
ltoes -6.07032 0 0
rfemur 10.4547 -8.70262 8.58232
rtibia 36.1506 -0 0
rfoot -22.6479 -26.2 -7.95139e-16
rtoes -31.4216 0 0
lowerback 10.1559 -0.833248 5.31533
upperback -1.88191 0.0867973 8.12757
thorax -7.76301 -0.0279407 5.70346
lowerneck -4.8634 8.32397 3.4091
upperneck 7.92955 10.9619 -1.00168
head 3.70187 5.48813 -0.376144
lclavicle -5.7573e-14 1.55052e-14 0
lhumerus 83.2254 -6.88126 28.5472
lradius 94.0693 -0 0
lwrist 8.74038 0 0
lhand -35.87 30.4852 0.00113386
lfingers 7.12502 -0 0
lthumb -8.98437 60.2738 0.00111126
rclavicle -5.7573e-14 1.55052e-14 0
rhumerus -77.603 23.0481 -95.1261
rradius 111.894 -0 0
rwrist -63.2758 0 0
rhand -10.2269 -25.055 -3.32499e-05
rfingers 7.12502 -0 0
rthumb 15.7651 -54.4329 -3.07764e-05
1025
root 0.242474 13.5372 -35.347 12.306 -28.1668 -17.64
lfemur -70.1753 36.1659 -4.20653
ltibia 82.6257 -0 0
lfoot -13.1732 -8.53946 -5.3598e-05
ltoes -6.08689 0 0
rfemur 10.4625 -8.70049 8.57612
rtibia 36.1444 -0 0
rfoot -22.6479 -26.2 -7.95139e-16
rtoes -31.419 0 0
lowerback 10.1517 -0.831473 5.30933
upperback -1.88391 0.0881749 8.12499
thorax -7.76301 -0.0279407 5.70346
lowerneck -4.86691 8.32399 3.40878
upperneck 7.93106 10.9617 -0.999513
head 3.70187 5.48813 -0.376144
lclavicle -5.7573e-14 1.55052e-14 0
lhumerus 83.2336 -6.65167 28.5728
lradius 94.0612 -0 0
lwrist 8.68195 0 0
lhand -35.8849 30.4515 0.000289722
lfingers 7.12502 -0 0
lthumb -8.99873 60.2396 0.000283947
rclavicle -5.7573e-14 1.55052e-14 0
rhumerus -77.6053 23.0521 -95.1284
rradius 111.89 -0 0
rwrist -63.2778 0 0
rhand -10.2297 -25.0495 -8.49601e-06
rfingers 7.12502 -0 0
rthumb 15.7622 -54.4271 -5.26739e-06
